<svg width="1200" height="600" viewBox="0 0 1200 600" fill="none" xmlns="http://www.w3.org/2000/svg">
  <!-- Background pattern with connected circles representing model entities and relationships -->
  <defs>
    <style>
      .circle { fill: #eb5a29; opacity: 0.25; }
      .line { stroke: #eb5a29; stroke-width: 1.5; opacity: 0.3; }
    </style>
  </defs>
  
  <!-- Connection lines between circles -->
  <line class="line" x1="200" y1="150" x2="350" y2="200"/>
  <line class="line" x1="350" y1="200" x2="500" y2="150"/>
  <line class="line" x1="500" y1="150" x2="650" y2="200"/>
  <line class="line" x1="650" y1="200" x2="800" y2="150"/>
  <line class="line" x1="800" y1="150" x2="950" y2="200"/>
  
  <line class="line" x1="200" y1="300" x2="350" y2="250"/>
  <line class="line" x1="350" y1="250" x2="500" y2="300"/>
  <line class="line" x1="500" y1="300" x2="650" y2="250"/>
  <line class="line" x1="650" y1="250" x2="800" y2="300"/>
  <line class="line" x1="800" y1="300" x2="950" y2="250"/>
  
  <line class="line" x1="200" y1="450" x2="350" y2="400"/>
  <line class="line" x1="350" y1="400" x2="500" y2="450"/>
  <line class="line" x1="500" y1="450" x2="650" y2="400"/>
  <line class="line" x1="650" y1="400" x2="800" y2="450"/>
  <line class="line" x1="800" y1="450" x2="950" y2="400"/>
  
  <!-- Vertical connections -->
  <line class="line" x1="200" y1="150" x2="200" y2="300"/>
  <line class="line" x1="200" y1="300" x2="200" y2="450"/>
  <line class="line" x1="350" y1="200" x2="350" y2="250"/>
  <line class="line" x1="350" y1="250" x2="350" y2="400"/>
  <line class="line" x1="500" y1="150" x2="500" y2="300"/>
  <line class="line" x1="500" y1="300" x2="500" y2="450"/>
  <line class="line" x1="650" y1="200" x2="650" y2="250"/>
  <line class="line" x1="650" y1="250" x2="650" y2="400"/>
  <line class="line" x1="800" y1="150" x2="800" y2="300"/>
  <line class="line" x1="800" y1="300" x2="800" y2="450"/>
  <line class="line" x1="950" y1="200" x2="950" y2="250"/>
  <line class="line" x1="950" y1="250" x2="950" y2="400"/>
  
  <!-- Diagonal connections -->
  <line class="line" x1="200" y1="150" x2="350" y2="250"/>
  <line class="line" x1="350" y1="200" x2="500" y2="300"/>
  <line class="line" x1="500" y1="150" x2="650" y2="250"/>
  <line class="line" x1="650" y1="200" x2="800" y2="300"/>
  <line class="line" x1="800" y1="150" x2="950" y2="250"/>
  
  <line class="line" x1="200" y1="300" x2="350" y2="400"/>
  <line class="line" x1="350" y1="250" x2="500" y2="450"/>
  <line class="line" x1="500" y1="300" x2="650" y2="400"/>
  <line class="line" x1="650" y1="250" x2="800" y2="450"/>
  <line class="line" x1="800" y1="300" x2="950" y2="400"/>
  
  <!-- Entity circles -->
  <circle class="circle" cx="200" cy="150" r="25"/>
  <circle class="circle" cx="350" cy="200" r="20"/>
  <circle class="circle" cx="500" cy="150" r="30"/>
  <circle class="circle" cx="650" cy="200" r="22"/>
  <circle class="circle" cx="800" cy="150" r="28"/>
  <circle class="circle" cx="950" cy="200" r="18"/>
  
  <circle class="circle" cx="200" cy="300" r="22"/>
  <circle class="circle" cx="350" cy="250" r="28"/>
  <circle class="circle" cx="500" cy="300" r="18"/>
  <circle class="circle" cx="650" cy="250" r="25"/>
  <circle class="circle" cx="800" cy="300" r="20"/>
  <circle class="circle" cx="950" cy="250" r="30"/>
  
  <circle class="circle" cx="200" cy="450" r="30"/>
  <circle class="circle" cx="350" cy="400" r="18"/>
  <circle class="circle" cx="500" cy="450" r="25"/>
  <circle class="circle" cx="650" cy="400" r="20"/>
  <circle class="circle" cx="800" cy="450" r="22"/>
  <circle class="circle" cx="950" cy="400" r="28"/>
  
  <!-- Additional smaller circles for depth -->
  <circle class="circle" cx="275" cy="100" r="12"/>
  <circle class="circle" cx="425" cy="80" r="10"/>
  <circle class="circle" cx="575" cy="100" r="14"/>
  <circle class="circle" cx="725" cy="80" r="8"/>
  <circle class="circle" cx="875" cy="100" r="16"/>
  
  <circle class="circle" cx="275" cy="500" r="10"/>
  <circle class="circle" cx="425" cy="520" r="14"/>
  <circle class="circle" cx="575" cy="500" r="8"/>
  <circle class="circle" cx="725" cy="520" r="12"/>
  <circle class="circle" cx="875" cy="500" r="10"/>
</svg>